<mxfile host="app.diagrams.net" agent="Mozilla/5.0 (Windows NT 10.0; Win64; x64) AppleWebKit/537.36 (KHTML, like Gecko) Chrome/130.0.0.0 Safari/537.36" version="24.8.0">
  <diagram name="Side-1" id="_oTLftNo8-tSvcQXOv2-">
    <mxGraphModel dx="1259" dy="662" grid="1" gridSize="5" guides="1" tooltips="1" connect="1" arrows="1" fold="1" page="1" pageScale="1" pageWidth="827" pageHeight="1169" math="0" shadow="0">
      <root>
        <mxCell id="0" />
        <mxCell id="1" parent="0" />
        <mxCell id="xJy_BAHci_6QRdnQFg_u-1" value="&lt;font style=&quot;font-size: 18px;&quot;&gt;IV_SAVER&lt;/font&gt;" style="swimlane;whiteSpace=wrap;html=1;startSize=50;" vertex="1" parent="1">
          <mxGeometry x="490" y="290" width="515" height="330" as="geometry" />
        </mxCell>
        <mxCell id="xJy_BAHci_6QRdnQFg_u-2" value="&lt;span style=&quot;font-size: 16px;&quot;&gt;RnW_TO_MEM_DIST_OUT&lt;/span&gt;" style="text;html=1;align=center;verticalAlign=middle;whiteSpace=wrap;rounded=0;" vertex="1" parent="xJy_BAHci_6QRdnQFg_u-1">
          <mxGeometry x="295" y="67" width="220" height="20" as="geometry" />
        </mxCell>
        <mxCell id="xJy_BAHci_6QRdnQFg_u-3" value="&lt;span style=&quot;font-size: 16px;&quot;&gt;CLK_TO_MEM_DIST_OUT&lt;/span&gt;" style="text;html=1;align=center;verticalAlign=middle;whiteSpace=wrap;rounded=0;" vertex="1" parent="xJy_BAHci_6QRdnQFg_u-1">
          <mxGeometry x="300" y="107" width="215" height="20" as="geometry" />
        </mxCell>
        <mxCell id="xJy_BAHci_6QRdnQFg_u-4" value="&lt;span style=&quot;font-size: 16px;&quot;&gt;ADDR_TO_MEM_DIST_OUT&lt;/span&gt;" style="text;html=1;align=center;verticalAlign=middle;whiteSpace=wrap;rounded=0;" vertex="1" parent="xJy_BAHci_6QRdnQFg_u-1">
          <mxGeometry x="285" y="147" width="230" height="20" as="geometry" />
        </mxCell>
        <mxCell id="xJy_BAHci_6QRdnQFg_u-5" value="&lt;span style=&quot;font-size: 16px;&quot;&gt;DATA_TO_MEM_DIST_OUT&lt;/span&gt;" style="text;html=1;align=center;verticalAlign=middle;whiteSpace=wrap;rounded=0;" vertex="1" parent="xJy_BAHci_6QRdnQFg_u-1">
          <mxGeometry x="290" y="187" width="225" height="20" as="geometry" />
        </mxCell>
        <mxCell id="xJy_BAHci_6QRdnQFg_u-6" value="&lt;span style=&quot;font-size: 16px;&quot;&gt;DATA_FROM_MEM_DIST_IN&lt;/span&gt;" style="text;html=1;align=center;verticalAlign=middle;whiteSpace=wrap;rounded=0;" vertex="1" parent="xJy_BAHci_6QRdnQFg_u-1">
          <mxGeometry x="285" y="227" width="230" height="20" as="geometry" />
        </mxCell>
        <mxCell id="xJy_BAHci_6QRdnQFg_u-7" value="&lt;span style=&quot;font-size: 16px;&quot;&gt;CLK_FROM_INT_MEM_IN&lt;/span&gt;" style="text;html=1;align=center;verticalAlign=middle;whiteSpace=wrap;rounded=0;" vertex="1" parent="xJy_BAHci_6QRdnQFg_u-1">
          <mxGeometry y="190" width="210" height="20" as="geometry" />
        </mxCell>
        <mxCell id="xJy_BAHci_6QRdnQFg_u-8" value="&lt;span style=&quot;font-size: 16px;&quot;&gt;ADDR_FROM_INT_MEM_IN&lt;/span&gt;" style="text;html=1;align=center;verticalAlign=middle;whiteSpace=wrap;rounded=0;" vertex="1" parent="xJy_BAHci_6QRdnQFg_u-1">
          <mxGeometry y="265" width="230" height="20" as="geometry" />
        </mxCell>
        <mxCell id="xJy_BAHci_6QRdnQFg_u-9" value="&lt;span style=&quot;font-size: 16px;&quot;&gt;DATA_TO_INT_MEM_OUT&lt;/span&gt;" style="text;html=1;align=center;verticalAlign=middle;whiteSpace=wrap;rounded=0;" vertex="1" parent="xJy_BAHci_6QRdnQFg_u-1">
          <mxGeometry y="227" width="215" height="20" as="geometry" />
        </mxCell>
        <mxCell id="xJy_BAHci_6QRdnQFg_u-10" value="&lt;span style=&quot;font-size: 16px;&quot;&gt;ADC_DnB&lt;/span&gt;" style="text;html=1;align=center;verticalAlign=middle;whiteSpace=wrap;rounded=0;" vertex="1" parent="xJy_BAHci_6QRdnQFg_u-1">
          <mxGeometry y="305" width="95" height="20" as="geometry" />
        </mxCell>
        <mxCell id="xJy_BAHci_6QRdnQFg_u-11" value="&lt;span style=&quot;font-size: 16px;&quot;&gt;ADC_DATA_IN&lt;/span&gt;" style="text;html=1;align=center;verticalAlign=middle;whiteSpace=wrap;rounded=0;" vertex="1" parent="xJy_BAHci_6QRdnQFg_u-1">
          <mxGeometry y="67" width="130" height="20" as="geometry" />
        </mxCell>
        <mxCell id="xJy_BAHci_6QRdnQFg_u-12" value="&lt;span style=&quot;font-size: 16px;&quot;&gt;ADC_DATA_RDY_IN&lt;/span&gt;" style="text;html=1;align=center;verticalAlign=middle;whiteSpace=wrap;rounded=0;" vertex="1" parent="xJy_BAHci_6QRdnQFg_u-1">
          <mxGeometry y="107" width="170" height="20" as="geometry" />
        </mxCell>
        <mxCell id="xJy_BAHci_6QRdnQFg_u-13" value="&lt;font style=&quot;font-size: 14px;&quot;&gt;sig_RnW_TO_MEM_DIST&lt;/font&gt;" style="text;html=1;align=center;verticalAlign=middle;whiteSpace=wrap;rounded=0;fontSize=14;" vertex="1" parent="1">
          <mxGeometry x="1075" y="345" width="170" height="20" as="geometry" />
        </mxCell>
        <mxCell id="xJy_BAHci_6QRdnQFg_u-14" value="sig_CLK_TO_MEM_DIST" style="text;html=1;align=center;verticalAlign=middle;whiteSpace=wrap;rounded=0;fontSize=14;" vertex="1" parent="1">
          <mxGeometry x="1065" y="385" width="190" height="20" as="geometry" />
        </mxCell>
        <mxCell id="xJy_BAHci_6QRdnQFg_u-15" value="&lt;font style=&quot;font-size: 14px;&quot;&gt;sig_ADDR_TO_MEM_DIST&lt;/font&gt;" style="text;html=1;align=center;verticalAlign=middle;whiteSpace=wrap;rounded=0;fontSize=14;" vertex="1" parent="1">
          <mxGeometry x="1060" y="425" width="190" height="20" as="geometry" />
        </mxCell>
        <mxCell id="xJy_BAHci_6QRdnQFg_u-16" value="&lt;font style=&quot;font-size: 14px;&quot;&gt;sig_DATA_TO_MEM_DIST&lt;/font&gt;" style="text;html=1;align=center;verticalAlign=middle;whiteSpace=wrap;rounded=0;fontSize=14;" vertex="1" parent="1">
          <mxGeometry x="1075" y="465" width="170" height="20" as="geometry" />
        </mxCell>
        <mxCell id="xJy_BAHci_6QRdnQFg_u-17" value="&lt;font style=&quot;font-size: 14px;&quot;&gt;sig_DATA_FROM_MEM_DIST&lt;/font&gt;" style="text;html=1;align=center;verticalAlign=middle;whiteSpace=wrap;rounded=0;fontSize=14;" vertex="1" parent="1">
          <mxGeometry x="1039" y="505" width="205" height="20" as="geometry" />
        </mxCell>
        <mxCell id="xJy_BAHci_6QRdnQFg_u-18" value="&lt;font style=&quot;font-size: 16px;&quot;&gt;16&lt;/font&gt;" style="text;html=1;align=center;verticalAlign=middle;whiteSpace=wrap;rounded=0;" vertex="1" parent="1">
          <mxGeometry x="1005" y="425" width="26" height="20" as="geometry" />
        </mxCell>
        <mxCell id="xJy_BAHci_6QRdnQFg_u-20" value="" style="endArrow=none;html=1;rounded=0;" edge="1" parent="1">
          <mxGeometry width="50" height="50" relative="1" as="geometry">
            <mxPoint x="1023" y="455" as="sourcePoint" />
            <mxPoint x="1031" y="440" as="targetPoint" />
          </mxGeometry>
        </mxCell>
        <mxCell id="xJy_BAHci_6QRdnQFg_u-34" value="&lt;font style=&quot;font-size: 18px;&quot;&gt;ExternalMemoryDistribution&lt;/font&gt;" style="swimlane;whiteSpace=wrap;html=1;startSize=50;" vertex="1" parent="1">
          <mxGeometry x="1280" y="280" width="340" height="300" as="geometry" />
        </mxCell>
        <mxCell id="xJy_BAHci_6QRdnQFg_u-35" value="&lt;font style=&quot;font-size: 18px;&quot;&gt;RnW&lt;/font&gt;" style="text;html=1;align=center;verticalAlign=middle;whiteSpace=wrap;rounded=0;" vertex="1" parent="xJy_BAHci_6QRdnQFg_u-34">
          <mxGeometry y="77" width="55" height="20" as="geometry" />
        </mxCell>
        <mxCell id="xJy_BAHci_6QRdnQFg_u-36" value="&lt;span style=&quot;font-size: 16px;&quot;&gt;CLK_IVSAVER_TO_MEM_DIST&lt;/span&gt;" style="text;html=1;align=center;verticalAlign=middle;whiteSpace=wrap;rounded=0;" vertex="1" parent="xJy_BAHci_6QRdnQFg_u-34">
          <mxGeometry y="117" width="250" height="20" as="geometry" />
        </mxCell>
        <mxCell id="xJy_BAHci_6QRdnQFg_u-37" value="&lt;span style=&quot;font-size: 16px;&quot;&gt;ADDR_IV_SAVER_TO_EXT_MEM_DIST&lt;/span&gt;" style="text;html=1;align=center;verticalAlign=middle;whiteSpace=wrap;rounded=0;" vertex="1" parent="xJy_BAHci_6QRdnQFg_u-34">
          <mxGeometry y="157" width="315" height="20" as="geometry" />
        </mxCell>
        <mxCell id="xJy_BAHci_6QRdnQFg_u-38" value="&lt;span style=&quot;font-size: 16px;&quot;&gt;DATA_IV_SAVER_TO_EXT_MEM_DIST&lt;/span&gt;" style="text;html=1;align=center;verticalAlign=middle;whiteSpace=wrap;rounded=0;" vertex="1" parent="xJy_BAHci_6QRdnQFg_u-34">
          <mxGeometry y="197" width="305" height="20" as="geometry" />
        </mxCell>
        <mxCell id="xJy_BAHci_6QRdnQFg_u-39" value="&lt;span style=&quot;font-size: 16px;&quot;&gt;DATA_EXT_MEM_TO_IV_SAVER&lt;/span&gt;" style="text;html=1;align=center;verticalAlign=middle;whiteSpace=wrap;rounded=0;" vertex="1" parent="xJy_BAHci_6QRdnQFg_u-34">
          <mxGeometry y="237" width="262" height="20" as="geometry" />
        </mxCell>
        <mxCell id="xJy_BAHci_6QRdnQFg_u-40" style="edgeStyle=orthogonalEdgeStyle;rounded=0;orthogonalLoop=1;jettySize=auto;html=1;" edge="1" parent="1" source="xJy_BAHci_6QRdnQFg_u-2" target="xJy_BAHci_6QRdnQFg_u-35">
          <mxGeometry relative="1" as="geometry" />
        </mxCell>
        <mxCell id="xJy_BAHci_6QRdnQFg_u-41" style="edgeStyle=orthogonalEdgeStyle;rounded=0;orthogonalLoop=1;jettySize=auto;html=1;" edge="1" parent="1" source="xJy_BAHci_6QRdnQFg_u-3" target="xJy_BAHci_6QRdnQFg_u-36">
          <mxGeometry relative="1" as="geometry" />
        </mxCell>
        <mxCell id="xJy_BAHci_6QRdnQFg_u-42" style="edgeStyle=orthogonalEdgeStyle;rounded=0;orthogonalLoop=1;jettySize=auto;html=1;" edge="1" parent="1" source="xJy_BAHci_6QRdnQFg_u-4" target="xJy_BAHci_6QRdnQFg_u-37">
          <mxGeometry relative="1" as="geometry" />
        </mxCell>
        <mxCell id="xJy_BAHci_6QRdnQFg_u-44" style="edgeStyle=orthogonalEdgeStyle;rounded=0;orthogonalLoop=1;jettySize=auto;html=1;" edge="1" parent="1" source="xJy_BAHci_6QRdnQFg_u-5" target="xJy_BAHci_6QRdnQFg_u-38">
          <mxGeometry relative="1" as="geometry" />
        </mxCell>
        <mxCell id="xJy_BAHci_6QRdnQFg_u-45" value="&lt;font style=&quot;font-size: 16px;&quot;&gt;16&lt;/font&gt;" style="text;html=1;align=center;verticalAlign=middle;whiteSpace=wrap;rounded=0;" vertex="1" parent="1">
          <mxGeometry x="1005" y="465" width="26" height="20" as="geometry" />
        </mxCell>
        <mxCell id="xJy_BAHci_6QRdnQFg_u-46" value="" style="endArrow=none;html=1;rounded=0;" edge="1" parent="1">
          <mxGeometry width="50" height="50" relative="1" as="geometry">
            <mxPoint x="1023" y="495" as="sourcePoint" />
            <mxPoint x="1031" y="480" as="targetPoint" />
          </mxGeometry>
        </mxCell>
        <mxCell id="xJy_BAHci_6QRdnQFg_u-47" style="edgeStyle=orthogonalEdgeStyle;rounded=0;orthogonalLoop=1;jettySize=auto;html=1;" edge="1" parent="1" source="xJy_BAHci_6QRdnQFg_u-39" target="xJy_BAHci_6QRdnQFg_u-6">
          <mxGeometry relative="1" as="geometry" />
        </mxCell>
        <mxCell id="xJy_BAHci_6QRdnQFg_u-48" value="" style="endArrow=none;html=1;rounded=0;" edge="1" parent="1">
          <mxGeometry width="50" height="50" relative="1" as="geometry">
            <mxPoint x="1265" y="535" as="sourcePoint" />
            <mxPoint x="1273" y="520" as="targetPoint" />
          </mxGeometry>
        </mxCell>
        <mxCell id="xJy_BAHci_6QRdnQFg_u-49" value="&lt;font style=&quot;font-size: 16px;&quot;&gt;16&lt;/font&gt;" style="text;html=1;align=center;verticalAlign=middle;whiteSpace=wrap;rounded=0;" vertex="1" parent="1">
          <mxGeometry x="1245" y="508" width="26" height="20" as="geometry" />
        </mxCell>
        <mxCell id="xJy_BAHci_6QRdnQFg_u-50" value="&lt;font style=&quot;font-size: 18px;&quot;&gt;IV_SDIST&lt;/font&gt;" style="swimlane;whiteSpace=wrap;html=1;startSize=50;" vertex="1" parent="1">
          <mxGeometry x="65" y="290" width="195" height="140" as="geometry" />
        </mxCell>
        <mxCell id="xJy_BAHci_6QRdnQFg_u-51" value="&lt;span style=&quot;font-size: 16px;&quot;&gt;ADC_DATA_OUT&lt;/span&gt;" style="text;html=1;align=center;verticalAlign=middle;whiteSpace=wrap;rounded=0;" vertex="1" parent="xJy_BAHci_6QRdnQFg_u-50">
          <mxGeometry x="50" y="67" width="145" height="20" as="geometry" />
        </mxCell>
        <mxCell id="xJy_BAHci_6QRdnQFg_u-52" value="&lt;span style=&quot;font-size: 16px;&quot;&gt;ADC_DATA_RDY_OUT&lt;/span&gt;" style="text;html=1;align=center;verticalAlign=middle;whiteSpace=wrap;rounded=0;" vertex="1" parent="xJy_BAHci_6QRdnQFg_u-50">
          <mxGeometry x="5" y="107" width="190" height="20" as="geometry" />
        </mxCell>
        <mxCell id="xJy_BAHci_6QRdnQFg_u-62" style="edgeStyle=orthogonalEdgeStyle;rounded=0;orthogonalLoop=1;jettySize=auto;html=1;" edge="1" parent="1" source="xJy_BAHci_6QRdnQFg_u-51" target="xJy_BAHci_6QRdnQFg_u-11">
          <mxGeometry relative="1" as="geometry" />
        </mxCell>
        <mxCell id="xJy_BAHci_6QRdnQFg_u-63" style="edgeStyle=orthogonalEdgeStyle;rounded=0;orthogonalLoop=1;jettySize=auto;html=1;" edge="1" parent="1" source="xJy_BAHci_6QRdnQFg_u-52" target="xJy_BAHci_6QRdnQFg_u-12">
          <mxGeometry relative="1" as="geometry" />
        </mxCell>
        <mxCell id="xJy_BAHci_6QRdnQFg_u-64" value="&lt;span style=&quot;font-size: 16px;&quot;&gt;sig_IV_SDIST_DATA&lt;/span&gt;" style="text;html=1;align=center;verticalAlign=middle;whiteSpace=wrap;rounded=0;" vertex="1" parent="1">
          <mxGeometry x="300" y="345" width="170" height="20" as="geometry" />
        </mxCell>
        <mxCell id="xJy_BAHci_6QRdnQFg_u-65" value="&lt;span style=&quot;font-size: 16px;&quot;&gt;sig_IV_SDIST_RDY&lt;/span&gt;" style="text;html=1;align=center;verticalAlign=middle;whiteSpace=wrap;rounded=0;" vertex="1" parent="1">
          <mxGeometry x="300" y="385" width="170" height="20" as="geometry" />
        </mxCell>
        <mxCell id="xJy_BAHci_6QRdnQFg_u-66" value="&lt;font style=&quot;font-size: 16px;&quot;&gt;16&lt;/font&gt;" style="text;html=1;align=center;verticalAlign=middle;whiteSpace=wrap;rounded=0;" vertex="1" parent="1">
          <mxGeometry x="260" y="345" width="26" height="20" as="geometry" />
        </mxCell>
        <mxCell id="xJy_BAHci_6QRdnQFg_u-67" value="" style="endArrow=none;html=1;rounded=0;" edge="1" parent="1">
          <mxGeometry width="50" height="50" relative="1" as="geometry">
            <mxPoint x="278" y="375" as="sourcePoint" />
            <mxPoint x="286" y="360" as="targetPoint" />
          </mxGeometry>
        </mxCell>
        <mxCell id="xJy_BAHci_6QRdnQFg_u-68" value="&lt;font style=&quot;font-size: 18px;&quot;&gt;IV_SDIST&lt;/font&gt;" style="swimlane;whiteSpace=wrap;html=1;startSize=50;" vertex="1" parent="1">
          <mxGeometry x="90" y="570" width="265" height="245" as="geometry" />
        </mxCell>
        <mxCell id="xJy_BAHci_6QRdnQFg_u-69" value="&lt;span style=&quot;font-size: 16px;&quot;&gt;ADC_DATA_OUT&lt;/span&gt;" style="text;html=1;align=center;verticalAlign=middle;whiteSpace=wrap;rounded=0;" vertex="1" parent="xJy_BAHci_6QRdnQFg_u-68">
          <mxGeometry x="50" y="67" width="145" height="20" as="geometry" />
        </mxCell>
        <mxCell id="xJy_BAHci_6QRdnQFg_u-70" value="&lt;span style=&quot;font-size: 16px;&quot;&gt;ADC_DATA_RDY_OUT&lt;/span&gt;" style="text;html=1;align=center;verticalAlign=middle;whiteSpace=wrap;rounded=0;" vertex="1" parent="xJy_BAHci_6QRdnQFg_u-68">
          <mxGeometry x="5" y="107" width="190" height="20" as="geometry" />
        </mxCell>
      </root>
    </mxGraphModel>
  </diagram>
</mxfile>
